<?xml version="1.0" encoding="UTF-8"?>
<svg version="1.1" xmlns="http://www.w3.org/2000/svg" width="1384" height="180">
<path d="M0 0 C1.11130332 0.73938417 2.21854979 1.48517521 3.3125 2.25 C2.42740439 6.73765418 -0.11085834 9.64889499 -2.9375 13.125 C-3.65486328 14.02412109 -3.65486328 14.02412109 -4.38671875 14.94140625 C-7.43732068 18.75259186 -10.55225597 22.50830366 -13.6875 26.25 C-14.656875 25.92 -15.62625 25.59 -16.625 25.25 C-22.01638183 23.72991466 -27.20682726 23.44108498 -32.5625 25.1875 C-39.81732212 32.22894499 -38.15384256 44.17782349 -38.6875 53.25 C-14.2675 53.25 10.1525 53.25 35.3125 53.25 C35.3125 92.19 35.3125 131.13 35.3125 171.25 C24.4225 171.25 13.5325 171.25 2.3125 171.25 C2.3125 141.88 2.3125 112.51 2.3125 82.25 C-11.2175 82.25 -24.7475 82.25 -38.6875 82.25 C-38.6875 111.62 -38.6875 140.99 -38.6875 171.25 C-49.2475 171.25 -59.8075 171.25 -70.6875 171.25 C-70.6875 141.88 -70.6875 112.51 -70.6875 82.25 C-79.5975 82.25 -88.5075 82.25 -97.6875 82.25 C-97.6875 72.68 -97.6875 63.11 -97.6875 53.25 C-88.7775 53.25 -79.8675 53.25 -70.6875 53.25 C-70.81125 47.7121875 -70.81125 47.7121875 -70.9375 42.0625 C-71.04076107 26.83609243 -68.45141763 15.73805489 -57.84375 4.25390625 C-42.38882426 -10.47261111 -17.56032972 -10.66379884 0 0 Z " fill="#D2D2D2" transform="translate(956.6875,6.75)"/>
<path d="M0 0 C10.89 0 21.78 0 33 0 C37.39285903 12.83307134 41.7790201 25.66838892 46.15148926 38.50842285 C46.68570404 40.07709757 47.22010172 41.64571003 47.75476074 43.2142334 C49.13544532 47.26539186 50.50833535 51.319092 51.875 55.375 C52.20177734 56.3340625 52.52855469 57.293125 52.86523438 58.28125 C53.15462891 59.14492187 53.44402344 60.00859375 53.7421875 60.8984375 C53.9882373 61.62724121 54.23428711 62.35604492 54.48779297 63.10693359 C55 65 55 65 55 68 C55.66 68 56.32 68 57 68 C57.37825928 66.12828125 57.37825928 66.12828125 57.76416016 64.21875 C59.03704291 58.5061647 60.87885383 53.03203342 62.7734375 47.5 C63.13845367 46.42427734 63.50346985 45.34855469 63.87954712 44.24023438 C64.6488265 41.97707572 65.42046349 39.71471721 66.19433594 37.453125 C67.37066848 34.01266852 68.53741066 30.56906666 69.703125 27.125 C70.45515663 24.91647163 71.20774243 22.70813186 71.9609375 20.5 C72.47834 18.97149414 72.47834 18.97149414 73.00619507 17.41210938 C73.33979034 16.44080078 73.67338562 15.46949219 74.01708984 14.46875 C74.30417816 13.62763672 74.59126648 12.78652344 74.88705444 11.91992188 C76.42688577 7.88002329 78.2440975 3.95078062 80 0 C87.92 0 95.84 0 104 0 C106.40892089 6.96361502 108.81726151 13.9274301 111.22462845 20.89158249 C112.34292434 24.12657334 113.46145761 27.36148167 114.58056641 30.59619141 C115.87216118 34.32949624 117.16266409 38.06317807 118.453125 41.796875 C119.04556 43.50855865 119.04556 43.50855865 119.64996338 45.25482178 C122.14855552 52.48737944 124.59574849 59.73553671 127 67 C130.21188946 59.29840058 132.9294035 51.47551212 135.546875 43.5546875 C136.1709726 41.67814987 136.1709726 41.67814987 136.80767822 39.76370239 C137.9019077 36.47345865 138.99252525 33.18202922 140.08233643 29.89031982 C141.19980233 26.51728693 142.3207278 23.14540412 143.44140625 19.7734375 C145.6313028 13.18350851 147.81550607 6.59173167 150 0 C160.89 0 171.78 0 183 0 C182.29307457 4.24155261 181.64529742 7.3699863 180.19677734 11.27880859 C179.82430374 12.29183044 179.45183014 13.30485229 179.06806946 14.34857178 C178.66146591 15.43752747 178.25486237 16.52648315 177.8359375 17.6484375 C177.19938484 19.37226654 177.19938484 19.37226654 176.54997253 21.13092041 C175.40133134 24.23788125 174.2479373 27.3429915 173.09209061 30.44727325 C171.8923996 33.67235586 170.69847589 36.89957297 169.50366211 40.12646484 C166.67770154 47.754181 163.83956674 55.37734085 161 63 C160.21138933 65.11912706 159.42281283 67.23826684 158.63427734 69.35742188 C156.61497501 74.78168031 154.59044259 80.20396647 152.5625 85.625 C152.26647888 86.41718933 151.97045776 87.20937866 151.66546631 88.02557373 C147.90759919 98.07250424 144.01624434 108.05328324 140 118 C132.08 118 124.16 118 116 118 C115.10539062 115.57011719 114.21078125 113.14023438 113.2890625 110.63671875 C106.21194267 91.4173201 99.12327295 72.20234748 92 53 C88.55085452 61.08933636 85.37317662 69.239865 82.390625 77.51171875 C81.77220734 79.21398369 81.77220734 79.21398369 81.14129639 80.95063782 C79.84152153 84.52862796 78.5453117 88.10789188 77.25 91.6875 C75.52920482 96.44256128 73.80480555 101.19629191 72.078125 105.94921875 C71.68336975 107.04384933 71.2886145 108.13847992 70.88189697 109.26628113 C70.51771667 110.2685524 70.15353638 111.27082367 69.77832031 112.3034668 C69.45808899 113.18882614 69.13785767 114.07418549 68.80792236 114.9863739 C68 117 68 117 67 118 C65.29227642 118.08713831 63.58101351 118.10700007 61.87109375 118.09765625 C60.83662109 118.09443359 59.80214844 118.09121094 58.73632812 118.08789062 C57.64771484 118.07951172 56.55910156 118.07113281 55.4375 118.0625 C53.7987793 118.05573242 53.7987793 118.05573242 52.12695312 118.04882812 C49.41791505 118.03699826 46.70898401 118.02051543 44 118 C40.42808666 110.2476486 37.40449235 102.31724292 34.4140625 94.328125 C33.87457592 92.89306496 33.33483629 91.45810004 32.79486084 90.02322388 C31.3629092 86.21618091 29.9341407 82.40795141 28.50615692 78.59941864 C26.15730719 72.33670743 23.80344609 66.07587591 21.45068741 59.81463242 C20.58077974 57.49925345 19.71126034 55.18372892 18.84176636 52.86819458 C15.63987791 44.34399805 12.42125962 35.82654728 9.171875 27.3203125 C8.66356644 25.98764343 8.66356644 25.98764343 8.14498901 24.62805176 C6.65518894 20.72281874 5.1610005 16.81938282 3.65869141 12.91894531 C3.15504502 11.59969656 2.65160998 10.28036708 2.1484375 8.9609375 C1.72739746 7.86571777 1.30635742 6.77049805 0.87255859 5.64208984 C0 3 0 3 0 0 Z " fill="#D2D2D2" transform="translate(197,60)"/>
<path d="M0 0 C3.46875 2.46875 3.46875 2.46875 4.8125 3.8125 C5.1425 0.8425 5.4725 -2.1275 5.8125 -5.1875 C16.3725 -5.1875 26.9325 -5.1875 37.8125 -5.1875 C37.8125 33.7525 37.8125 72.6925 37.8125 112.8125 C27.2525 112.8125 16.6925 112.8125 5.8125 112.8125 C5.3175 108.3575 5.3175 108.3575 4.8125 103.8125 C4.12285156 104.28300781 3.43320313 104.75351563 2.72265625 105.23828125 C-10.208802 113.80603754 -22.9589789 116.55943159 -38.4140625 114.3515625 C-52.60275033 111.16940296 -65.36179983 103.60297131 -73.578125 91.4453125 C-79.49455344 81.96254448 -83.69231796 71.05725874 -84.1875 59.8125 C-84.2390625 58.87277344 -84.290625 57.93304688 -84.34375 56.96484375 C-84.87163434 38.86280975 -79.946623 23.04093334 -68.0859375 9.39453125 C-50.71270751 -8.93023607 -21.61715021 -13.99550287 0 0 Z M-45.1875 33.8125 C-51.09378256 42.25619036 -51.43818825 51.88469204 -50.1875 61.8125 C-48.66797666 68.47633139 -45.47570373 74.40004975 -40.1875 78.8125 C-32.47882947 83.57628516 -24.91491325 86.10961563 -15.796875 84.3515625 C-7.37226823 82.15496257 -1.58588509 78.40705628 3.1875 71.0625 C7.81887464 62.62002144 8.68928621 54.22403086 6.8125 44.8125 C4.41166049 36.74881078 -0.59462109 29.71823034 -7.875 25.375 C-21.20625906 19.08667025 -35.7236236 22.84674757 -45.1875 33.8125 Z " fill="#D2D2D2" transform="translate(1095.1875,65.1875)"/>
<path d="M0 0 C3.46875 2.46875 3.46875 2.46875 4.8125 3.8125 C5.1425 0.8425 5.4725 -2.1275 5.8125 -5.1875 C16.3725 -5.1875 26.9325 -5.1875 37.8125 -5.1875 C37.8125 33.7525 37.8125 72.6925 37.8125 112.8125 C27.2525 112.8125 16.6925 112.8125 5.8125 112.8125 C5.3175 108.3575 5.3175 108.3575 4.8125 103.8125 C4.12285156 104.28300781 3.43320312 104.75351563 2.72265625 105.23828125 C-10.208802 113.80603754 -22.9589789 116.55943159 -38.4140625 114.3515625 C-52.60275033 111.16940296 -65.36179983 103.60297131 -73.578125 91.4453125 C-79.49455344 81.96254448 -83.69231796 71.05725874 -84.1875 59.8125 C-84.2390625 58.87277344 -84.290625 57.93304688 -84.34375 56.96484375 C-84.87163434 38.86280975 -79.946623 23.04093334 -68.0859375 9.39453125 C-50.71270751 -8.93023607 -21.61715021 -13.99550287 0 0 Z M-45.1875 33.8125 C-51.09378256 42.25619036 -51.43818825 51.88469204 -50.1875 61.8125 C-48.66797666 68.47633139 -45.47570373 74.40004975 -40.1875 78.8125 C-32.47882947 83.57628516 -24.91491325 86.10961563 -15.796875 84.3515625 C-7.37226823 82.15496257 -1.58588509 78.40705628 3.1875 71.0625 C7.81887464 62.62002144 8.68928621 54.22403086 6.8125 44.8125 C4.41166049 36.74881078 -0.59462109 29.71823034 -7.875 25.375 C-21.20625906 19.08667025 -35.7236236 22.84674757 -45.1875 33.8125 Z " fill="#D2D2D2" transform="translate(746.1875,65.1875)"/>
<path d="M0 0 C3.46875 2.46875 3.46875 2.46875 4.8125 3.8125 C5.1425 0.8425 5.4725 -2.1275 5.8125 -5.1875 C16.3725 -5.1875 26.9325 -5.1875 37.8125 -5.1875 C37.8125 33.7525 37.8125 72.6925 37.8125 112.8125 C27.2525 112.8125 16.6925 112.8125 5.8125 112.8125 C5.3175 108.3575 5.3175 108.3575 4.8125 103.8125 C4.12285156 104.28300781 3.43320312 104.75351563 2.72265625 105.23828125 C-10.208802 113.80603754 -22.9589789 116.55943159 -38.4140625 114.3515625 C-52.60275033 111.16940296 -65.36179983 103.60297131 -73.578125 91.4453125 C-79.49455344 81.96254448 -83.69231796 71.05725874 -84.1875 59.8125 C-84.2390625 58.87277344 -84.290625 57.93304688 -84.34375 56.96484375 C-84.87163434 38.86280975 -79.946623 23.04093334 -68.0859375 9.39453125 C-50.71270751 -8.93023607 -21.61715021 -13.99550287 0 0 Z M-45.1875 33.8125 C-51.09378256 42.25619036 -51.43818825 51.88469204 -50.1875 61.8125 C-48.66797666 68.47633139 -45.47570373 74.40004975 -40.1875 78.8125 C-32.47882947 83.57628516 -24.91491325 86.10961563 -15.796875 84.3515625 C-7.37226823 82.15496257 -1.58588509 78.40705628 3.1875 71.0625 C7.81887464 62.62002144 8.68928621 54.22403086 6.8125 44.8125 C4.41166049 36.74881078 -0.59462109 29.71823034 -7.875 25.375 C-21.20625906 19.08667025 -35.7236236 22.84674757 -45.1875 33.8125 Z " fill="#D2D2D2" transform="translate(468.1875,65.1875)"/>
<path d="M0 0 C3.46875 2.46875 3.46875 2.46875 4.8125 3.8125 C5.1425 0.8425 5.4725 -2.1275 5.8125 -5.1875 C16.3725 -5.1875 26.9325 -5.1875 37.8125 -5.1875 C37.8125 33.7525 37.8125 72.6925 37.8125 112.8125 C27.2525 112.8125 16.6925 112.8125 5.8125 112.8125 C5.3175 108.3575 5.3175 108.3575 4.8125 103.8125 C4.12285156 104.28300781 3.43320313 104.75351563 2.72265625 105.23828125 C-10.208802 113.80603754 -22.9589789 116.55943159 -38.4140625 114.3515625 C-52.60275033 111.16940296 -65.36179983 103.60297131 -73.578125 91.4453125 C-79.49455344 81.96254448 -83.69231796 71.05725874 -84.1875 59.8125 C-84.2390625 58.87277344 -84.290625 57.93304688 -84.34375 56.96484375 C-84.87163434 38.86280975 -79.946623 23.04093334 -68.0859375 9.39453125 C-50.71270751 -8.93023607 -21.61715021 -13.99550287 0 0 Z M-45.1875 33.8125 C-51.09378256 42.25619036 -51.43818825 51.88469204 -50.1875 61.8125 C-48.66797666 68.47633139 -45.47570373 74.40004975 -40.1875 78.8125 C-32.47882947 83.57628516 -24.91491325 86.10961563 -15.796875 84.3515625 C-7.37226823 82.15496257 -1.58588509 78.40705628 3.1875 71.0625 C7.81887464 62.62002144 8.68928621 54.22403086 6.8125 44.8125 C4.41166049 36.74881078 -0.59462109 29.71823034 -7.875 25.375 C-21.20625906 19.08667025 -35.7236236 22.84674757 -45.1875 33.8125 Z " fill="#D2D2D2" transform="translate(84.1875,65.1875)"/>
<path d="M0 0 C11.37354806 7.4182694 18.13646012 17.28317075 21.3671875 30.45703125 C21.62623792 33.29661943 21.62119004 36.11289443 21.59423828 38.96264648 C21.59453033 39.7829686 21.59482239 40.60329071 21.59512329 41.44847107 C21.59373914 44.13763309 21.57822134 46.82651187 21.5625 49.515625 C21.55876661 51.38891956 21.55592118 53.26221609 21.55392456 55.13551331 C21.54631374 60.04936174 21.52668728 64.96309065 21.5045166 69.87689209 C21.48400308 74.89772932 21.47491109 79.918586 21.46484375 84.93945312 C21.44343887 94.77870661 21.40827764 104.61784026 21.3671875 114.45703125 C10.8071875 114.45703125 0.2471875 114.45703125 -10.6328125 114.45703125 C-10.65859375 109.37554687 -10.684375 104.2940625 -10.7109375 99.05859375 C-10.73612954 95.82286753 -10.76248041 92.5872326 -10.79296875 89.3515625 C-10.84116099 84.22542071 -10.88525891 79.09949049 -10.90380859 73.97314453 C-10.91904842 69.83613046 -10.95362188 65.69967313 -11.00112152 61.56290817 C-11.01586032 59.99146767 -11.02384917 58.41994765 -11.02469635 56.84843826 C-11.03560047 46.75579342 -11.19277306 37.42564681 -18.2578125 29.51953125 C-24.62848893 25.6263401 -31.0019297 23.65440364 -38.46484375 24.8828125 C-44.54567857 26.49341199 -49.27599487 28.98666177 -52.6328125 34.45703125 C-56.56709369 42.30483869 -56.1105156 50.4182551 -56.14453125 58.98828125 C-56.16139722 60.59111897 -56.17955002 62.19394362 -56.19892883 63.79675293 C-56.24622704 67.99206456 -56.27616636 72.18732316 -56.30236816 76.3828125 C-56.33754504 81.42913885 -56.39449982 86.47526169 -56.44776154 91.52142334 C-56.52603865 99.16659936 -56.5768226 106.81151332 -56.6328125 114.45703125 C-67.5228125 114.45703125 -78.4128125 114.45703125 -89.6328125 114.45703125 C-89.6328125 75.51703125 -89.6328125 36.57703125 -89.6328125 -3.54296875 C-78.7428125 -3.54296875 -67.8528125 -3.54296875 -56.6328125 -3.54296875 C-56.1378125 0.91203125 -56.1378125 0.91203125 -55.6328125 5.45703125 C-54.5190625 4.54953125 -53.4053125 3.64203125 -52.2578125 2.70703125 C-37.60343473 -8.32286519 -15.64040098 -9.16611037 0 0 Z " fill="#D2D2D2" transform="translate(1249.6328125,63.54296875)"/>
<path d="M0 0 C11.37354806 7.4182694 18.13646012 17.28317075 21.3671875 30.45703125 C21.62623792 33.29661943 21.62119004 36.11289443 21.59423828 38.96264648 C21.59453033 39.7829686 21.59482239 40.60329071 21.59512329 41.44847107 C21.59373914 44.13763309 21.57822134 46.82651187 21.5625 49.515625 C21.55876661 51.38891956 21.55592118 53.26221609 21.55392456 55.13551331 C21.54631374 60.04936174 21.52668728 64.96309065 21.5045166 69.87689209 C21.48400308 74.89772932 21.47491109 79.918586 21.46484375 84.93945312 C21.44343887 94.77870661 21.40827764 104.61784026 21.3671875 114.45703125 C10.8071875 114.45703125 0.2471875 114.45703125 -10.6328125 114.45703125 C-10.65859375 109.37554687 -10.684375 104.2940625 -10.7109375 99.05859375 C-10.73612954 95.82286753 -10.76248041 92.5872326 -10.79296875 89.3515625 C-10.84116099 84.22542071 -10.88525891 79.09949049 -10.90380859 73.97314453 C-10.91904842 69.83613046 -10.95362188 65.69967313 -11.00112152 61.56290817 C-11.01586032 59.99146767 -11.02384917 58.41994765 -11.02469635 56.84843826 C-11.03560047 46.75579342 -11.19277306 37.42564681 -18.2578125 29.51953125 C-24.62848893 25.6263401 -31.0019297 23.65440364 -38.46484375 24.8828125 C-44.54567857 26.49341199 -49.27599487 28.98666177 -52.6328125 34.45703125 C-56.56709369 42.30483869 -56.1105156 50.4182551 -56.14453125 58.98828125 C-56.16139722 60.59111897 -56.17955002 62.19394362 -56.19892883 63.79675293 C-56.24622704 67.99206456 -56.27616636 72.18732316 -56.30236816 76.3828125 C-56.33754504 81.42913885 -56.39449982 86.47526169 -56.44776154 91.52142334 C-56.52603865 99.16659936 -56.5768226 106.81151332 -56.6328125 114.45703125 C-67.5228125 114.45703125 -78.4128125 114.45703125 -89.6328125 114.45703125 C-89.6328125 75.51703125 -89.6328125 36.57703125 -89.6328125 -3.54296875 C-78.7428125 -3.54296875 -67.8528125 -3.54296875 -56.6328125 -3.54296875 C-56.1378125 0.91203125 -56.1378125 0.91203125 -55.6328125 5.45703125 C-54.5190625 4.54953125 -53.4053125 3.64203125 -52.2578125 2.70703125 C-37.60343473 -8.32286519 -15.64040098 -9.16611037 0 0 Z " fill="#D2D2D2" transform="translate(622.6328125,63.54296875)"/>
<path d="M0 0 C3.66053001 3.0140213 6.88422698 6.43193734 10 10 C7.76423318 15.04345768 3.96327082 18.44365888 0.125 22.3125 C-0.59558594 23.06595703 -1.31617188 23.81941406 -2.05859375 24.59570312 C-2.75855469 25.30275391 -3.45851563 26.00980469 -4.1796875 26.73828125 C-4.81632324 27.38837158 -5.45295898 28.03846191 -6.10888672 28.70825195 C-8 30 -8 30 -10.1472168 29.78320312 C-12.27355467 28.88436377 -13.34887258 27.851977 -14.9375 26.1875 C-20.6011438 21.12195652 -28.79350508 18.9042725 -36.3125 18.5625 C-40.53113747 19.06301631 -44.40771519 19.6140133 -48 22 C-49.49381107 24.87842219 -49.49381107 24.87842219 -49 28 C-46.46772422 31.02734992 -44.28142239 32.5728592 -40.5625 33.8125 C-39.60601563 34.14121094 -38.64953125 34.46992187 -37.6640625 34.80859375 C-34.76659231 35.75073491 -31.86526387 36.6770741 -28.9609375 37.59765625 C-14.70764189 42.15387058 -1.83996537 46.32369548 6.16015625 59.98046875 C9.797212 68.7263191 9.3373902 81.04645759 6.5 90 C2.12822774 99.94955066 -4.82732112 104.9700997 -14.33984375 109.58984375 C-31.26936393 116.11231631 -51.23448539 114.48903387 -67.74609375 107.45703125 C-85.53237218 99.35171203 -85.53237218 99.35171203 -88.85205078 92.15209961 C-89 90 -89 90 -87.46118164 87.89355469 C-86.70184326 87.16040039 -85.94250488 86.42724609 -85.16015625 85.671875 C-84.34482422 84.87265625 -83.52949219 84.0734375 -82.68945312 83.25 C-81.82255859 82.425 -80.95566406 81.6 -80.0625 80.75 C-79.19947266 79.90953125 -78.33644531 79.0690625 -77.44726562 78.203125 C-75.30889685 76.12382718 -73.15975911 74.05703385 -71 72 C-67.75428717 73.57909978 -64.86459254 75.41102692 -61.875 77.4375 C-52.09934637 83.62788752 -42.49342632 85.30258832 -31 84 C-27.6394731 82.79795573 -27.6394731 82.79795573 -25 81 C-23.90465922 77.56793221 -23.34878789 74.30242423 -25 71 C-28.96008704 69.17113299 -33.14461236 68.00627819 -37.3125 66.75 C-70.39850993 56.52808759 -70.39850993 56.52808759 -78 45 C-82.5778817 36.0020946 -83.26530017 26.08431943 -80.8125 16.32421875 C-77.48528246 6.80645705 -71.07703432 -0.30397195 -62.375 -5.25 C-42.76747758 -14.11733957 -17.83720158 -11.60595829 0 0 Z " fill="#D2D2D2" transform="translate(1374,67)"/>
<path d="M0 0 C10.89 0 21.78 0 33 0 C33 58.08 33 116.16 33 176 C22.11 176 11.22 176 0 176 C0 117.92 0 59.84 0 0 Z " fill="#D2D2D2" transform="translate(810,2)"/>
<path d="M0 0 C10.89 0 21.78 0 33 0 C33 58.08 33 116.16 33 176 C22.11 176 11.22 176 0 176 C0 117.92 0 59.84 0 0 Z " fill="#D2D2D2" transform="translate(149,2)"/>
<path d="M0 0 C4.33287246 3.51705966 6.5310075 6.70370083 7.16796875 12.38671875 C7.19975185 19.85574706 6.22779019 24.56503617 0.8671875 30.015625 C-3.65729461 33.65821653 -8.46364187 34.06267417 -14.1328125 33.703125 C-19.98941797 32.44187101 -24.1088401 28.7390836 -27.3828125 23.828125 C-29.95432875 16.5421623 -28.90706451 10.81191913 -25.9453125 3.953125 C-19.57469774 -3.95522435 -8.56726104 -5.20939682 0 0 Z " fill="#D2D2D2" transform="translate(986.1328125,18.296875)"/>
</svg>
